<?xml version="1.0" standalone="no"?>
<!DOCTYPE svg PUBLIC "-//W3C//DTD SVG 20010904//EN"
 "http://www.w3.org/TR/2001/REC-SVG-20010904/DTD/svg10.dtd">
<svg version="1.0" xmlns="http://www.w3.org/2000/svg"
 width="512.000000pt" height="512.000000pt" viewBox="0 0 512.000000 512.000000"
 preserveAspectRatio="xMidYMid meet">
<metadata>
Created by potrace 1.14, written by Peter Selinger 2001-2017
</metadata>
<g transform="translate(0.000000,512.000000) scale(0.100000,-0.100000)"
fill="#000000" stroke="none">
<path d="M1300 4522 c-194 -109 -336 -219 -496 -384 -293 -303 -477 -684 -549
-1138 -23 -142 -31 -503 -15 -656 68 -679 380 -1216 910 -1568 290 -194 622
-318 1005 -378 182 -28 578 -31 748 -5 979 150 1676 744 1887 1609 54 220 65
319 65 598 -1 288 -14 406 -70 625 -80 311 -194 541 -389 783 -173 216 -383
392 -631 527 -90 49 -83 43 45 -43 401 -268 704 -654 874 -1113 103 -281 125
-760 50 -1142 -132 -677 -545 -1205 -1179 -1508 -307 -147 -641 -225 -1010
-236 -437 -13 -820 67 -1200 252 -267 130 -420 245 -569 429 -344 426 -522
957 -503 1506 25 733 399 1406 1007 1812 58 39 107 72 109 74 12 11 -12 -1
-89 -44z"/>
<path d="M1638 3341 c-74 -24 -132 -59 -186 -111 -88 -85 -152 -213 -152 -303
0 -106 115 -175 227 -136 17 5 60 43 97 84 39 43 84 82 110 95 43 21 46 21 81
4 20 -9 66 -49 103 -89 37 -40 81 -80 99 -89 69 -35 174 -7 214 57 50 79 -7
253 -121 367 -37 37 -85 71 -134 96 -71 35 -84 38 -179 41 -80 2 -114 -1 -159
-16z"/>
<path d="M3229 3346 c-67 -19 -142 -63 -193 -112 -90 -86 -156 -216 -156 -307
0 -82 70 -147 158 -147 63 0 101 22 170 99 36 40 80 78 106 91 43 21 46 21 81
4 20 -9 66 -49 103 -89 37 -40 81 -80 99 -89 42 -21 110 -20 153 3 92 48 105
147 36 286 -50 102 -129 180 -230 231 -71 35 -84 38 -179 40 -64 2 -119 -1
-148 -10z"/>
<path d="M1025 2490 c-2 -4 -20 -10 -40 -13 -19 -3 -49 -15 -65 -27 -17 -12
-30 -19 -30 -15 0 14 -53 -31 -68 -59 -45 -84 -51 -132 -27 -214 19 -61 61
-113 121 -148 39 -23 54 -26 126 -24 109 2 108 2 108 12 0 4 6 8 14 8 8 0 37
18 64 40 39 30 55 52 71 95 24 65 27 132 7 180 -22 51 -92 122 -139 140 -54
20 -136 35 -142 25z"/>
<path d="M3980 2481 c-8 -5 -28 -15 -44 -22 -46 -22 -103 -86 -120 -136 -33
-97 -14 -185 54 -252 54 -52 80 -74 80 -67 0 3 19 -2 43 -10 23 -9 57 -13 76
-10 19 3 40 1 46 -4 20 -17 127 43 172 95 79 93 83 199 10 307 -39 58 -46 63
-111 85 -71 23 -176 30 -206 14z"/>
<path d="M1458 1984 c-33 -17 -49 -67 -35 -106 13 -40 177 -190 287 -264 165
-110 338 -182 535 -224 144 -31 393 -38 543 -16 313 46 583 175 817 391 78 72
105 110 105 150 0 32 -49 85 -80 85 -12 0 -94 -36 -183 -79 -258 -127 -500
-198 -757 -222 -323 -29 -730 66 -1076 252 -98 53 -114 56 -156 33z"/>
</g>
</svg>
